# xmcd
#
# Track frame offsets:
#	150
#	11038
#	24325
#	35675
#	51050
#	62138
#	70950
#	83763
#	109038
#	125863
#	137588
#	150650
#	162488
#	175475
#	189688
#	202638
#	214625
#	224613
#	236650
#	248313
#
# Disc length: 3536
#
# Revision: 1
# Processed by: cddbd v1.5.1PL0 Copyright (c) Steve Scherf et al.
# Submitted via: audiograbber 1.82.02
# Normalized: r0:DSETVAR1
#
DISCID=1b0dce14
DTITLE=Various Artist - Soul Survivors - Volume 2
DYEAR=1900
DGENRE=
TTITLE0=Joe Tex - You Little Baby Faced Thing
TTITLE1=Percy Sledge - Take Time To Know Her
TTITLE2=The Tams - Hey Girl Don't Bother Me
TTITLE3=The Dells - There Is
TTITLE4=Lloyd Price - Personality
TTITLE5=Sam Cooke - Only Sixteen
TTITLE6=Sugar Pie De Santo - Soulful Dress
TTITLE7=Ramsey Lewis - The In Crowd
TTITLE8=The Moments - Love On A Two Way Street
TTITLE9=Tony Clarke - The Entertainer
TTITLE10=Barbara Mason - From His Woman To You
TTITLE11=Sam and Dave - Hold On
TTITLE12=Percy Sledge - When A Man Loves A Woman
TTITLE13=James Brown - I Got You
TTITLE14=Etta James - All I Could Do Was Cry
TTITLE15=Chuck Jackson - I Keep Forgettin'
TTITLE16=The Isley Bros. - Nobody But Me
TTITLE17=Ike and Tina Turner - We Need Understanding
TTITLE18=Maxine Brown - Oh No Not My Baby
TTITLE19=James Brown - Please Please Please
EXTD=
EXTT0=
EXTT1=
EXTT2=
EXTT3=
EXTT4=
EXTT5=
EXTT6=
EXTT7=
EXTT8=
EXTT9=
EXTT10=
EXTT11=
EXTT12=
EXTT13=
EXTT14=
EXTT15=
EXTT16=
EXTT17=
EXTT18=
EXTT19=
PLAYORDER=
